<svg version="1.0" xmlns="http://www.w3.org/2000/svg" width="933.33" height="933.33" viewBox="0 0 700 700" preserveAspectRatio="xMidYMid meet"><g transform="matrix(.1 0 0 -.1 0 700)" fill="#000000" stroke="none"><path d="M3280 6993c-19-1-87-8-150-14-507-48-1041-231-1486-509C223 5579-365 3821 232 2242c61-161 206-454 298-600 157-251 395-535 609-729 558-504 1225-804 1986-893 155-18 460-24 620-11 496 39 907 152 1330 366 217 109 341 186 528 326 1022 766 1543 2030 1361 3299-84 588-315 1141-673 1615-666 880-1709 1393-2811 1383-91-1-181-3-200-5zm456-888c360-62 679-262 886-556 218-309 289-693 197-1067l-20-82 59-65c172-188 208-439 97-674-44-93-168-220-262-269-172-90-397-95-567-13l-59 29-61-50c-84-68-146-101-256-139-89-31-104-33-235-33-117-1-153 3-218 22-103 29-197 78-282 144l-69 54-56-28c-178-88-389-89-569-1-96 46-221 167-269 260-70 133-88 286-52 427 26 105 72 187 149 268l63 68-20 83c-91 361-25 735 185 1049 64 97 223 260 320 330 180 130 395 216 623 251 70 11 335 6 416-8zm-782-2918c-1-8 31-47 71-87l72-72 35 31c32 28 37 29 72 19l37-12-43-43-42-43 74-75 75-75 75 75 74 74-24 26-23 25h206l-21-23c-12-13-22-26-22-29s33-38 73-76l72-71 72 72 73 71-40 41c-22 22-40 44-40 47 0 4 16 12 36 18 34 11 38 10 68-19l32-31 73 74c40 41 71 79 67 84-3 6 3 17 15 25 18 13 25 13 55 1 56-24 155-43 227-45 63-2 67-3 67-25 0-17-620-1731-780-2156-29-79-66-108-135-108-67 0-104 28-134 102-58 148-781 2145-781 2160 0 18 17 23 127 32 34 3 93 16 130 29 56 19 72 21 88 11 11-7 19-19 19-27z"/><path d="M3355 5853c-195-27-409-125-569-260-141-119-277-332-325-512-66-242-45-496 60-720 21-46 39-85 39-87 0-1-15-6-32-9-95-21-193-102-236-193-36-77-38-211-5-284 32-70 103-141 176-174 54-25 74-29 152-29 76 0 99 4 146 26 31 15 75 43 97 64 41 37 102 142 102 177 0 18 17 23 35 10 6-4 19-35 30-70 72-244 340-396 593-337 182 43 342 198 377 365 4 19 13 38 19 42 20 13 36 9 36-10 0-35 61-140 102-177 22-21 66-49 97-64 48-22 69-26 151-26 115 0 163 19 244 95 129 122 146 313 38 455-41 55-124 110-189 127-24 6-43 12-43 15 0 2 7 14 15 26 26 40 73 164 96 254 34 128 34 359 0 487-110 421-441 727-869 801-77 14-264 18-337 8z"/><path d="M2887 3114c-5-5 55-183 70-207 5-8 83 60 83 73 0 10-147 139-153 134z"/><path d="m4042 3047-72-73 40-39c22-21 41-37 43-34 5 6 77 204 77 212 0 17-21 2-88-66z"/><path d="m3041 2866-53-54 22-58c14-37 35-69 56-87l34-29 70 64c38 35 70 68 70 73 0 10-131 145-141 145-2 0-29-24-58-54z"/><path d="m3432 2848-73-72 73-73 73-73 75 75 74 75-69 70c-38 38-72 70-75 70s-38-33-78-72z"/><path d="m3839 2852-74-71 75-75 74-76 32 31c18 17 43 58 55 91l22 60-55 55-56 55-73-70z"/><path d="m3225 2650-70-70 75-75 75-75 74 74 75 75-74 68c-40 37-76 69-79 71-4 1-38-29-76-68z"/><path d="m3635 2650-69-70 69-70c38-38 72-70 75-70s39 30 79 67l73 66-73 74c-41 40-76 73-79 73s-37-31-75-70z"/><path d="M3100 2515c0-14 67-195 74-203 4-3 22 10 41 29l35 34-75 75c-41 41-75 70-75 65z"/><path d="m3432 2448-73-72 73-73 73-73 75 75 74 75-69 70c-38 38-72 70-75 70s-38-33-78-72z"/><path d="m3836 2443-68-65 33-34c18-19 36-31 39-27 9 10 71 185 68 189-2 1-34-27-72-63z"/><path d="m3248 2273-46-48 25-70c14-38 37-82 52-98l26-27 75 75 74 75-73 67c-41 38-77 69-80 71-4 1-27-19-53-45z"/><path d="m3635 2250-69-70 74-75c72-72 75-74 93-57 9 10 31 54 47 97l30 80-47 47c-26 27-50 48-53 48s-37-32-75-70z"/><path d="m3430 2049-74-69 69-70c38-39 74-70 80-70s42 32 80 70l69 70-69 70c-38 39-72 70-75 70-3-1-39-32-80-71z"/><path d="M3351 1814c18-49 34-91 36-93 5-6 64 52 61 60-2 3-31 32-66 64l-63 58 32-89z"/><path d="m3625 1840-59-60 26-27c15-15 30-25 32-22 6 6 67 169 63 169-1 0-29-27-62-60z"/><path d="m3455 1680-39-40 28-83c16-45 37-100 46-121l16-40 44 123 43 122-39 40c-21 21-43 39-49 39s-29-18-50-40z"/></g></svg>