<svg xmlns="http://www.w3.org/2000/svg"><style>:root svg:not(:target){display:none}</style><svg viewBox="0 0 16 16" fill="none" id="arrow-down"><path fill-rule="evenodd" clip-rule="evenodd" d="M3.8 6.2a.67.67 0 1 0-.93.94l4.66 4.66a.66.66 0 0 0 .94 0h.01l4.66-4.66a.67.67 0 1 0-.94-.94L8 10.39l-4.2-4.2Z" fill="#2D3440"></path></svg><svg viewBox="0 0 16 16" fill="none" id="arrow-tail"><path fill-rule="evenodd" clip-rule="evenodd" d="M10.48 2.87a.67.67 0 1 0-.94.94l3.52 3.53H1.34a.67.67 0 0 0 0 1.33h11.72L9.54 12.2a.67.67 0 0 0 .94.94l4.66-4.67a.67.67 0 0 0 0-.94l-4.66-4.66Z" fill="#2D3440"></path></svg><svg viewBox="0 0 16 16" fill="none" id="arrow"><path fill-rule="evenodd" clip-rule="evenodd" d="M7.14 2.86a.66.66 0 1 0-.95.95L10.4 8l-4.2 4.2a.67.67 0 0 0 .95.94l4.66-4.67a.66.66 0 0 0 0-.94L7.15 2.86Z" fill="#2D3440"></path></svg><svg viewBox="0 0 16 16" fill="none" id="cart"><path fill-rule="evenodd" clip-rule="evenodd" d="M1.17 1.25a.67.67 0 0 0 0 1.33h1.77l.47 2.34v.05l.97 4.84a1.83 1.83 0 0 0 1.82 1.46h5.62a1.83 1.83 0 0 0 1.82-1.46V9.8l.93-4.86a.67.67 0 0 0-.66-.8h-9.3L4.14 1.8a.67.67 0 0 0-.66-.54H1.17Zm4.52 8.3-.81-4.07h8.23l-.78 4.07a.5.5 0 0 1-.49.4H6.18a.5.5 0 0 1-.49-.4ZM4.56 13.5a1.25 1.25 0 1 1 2.49 0 1.25 1.25 0 0 1-2.5 0Zm6.37 0a1.25 1.25 0 1 1 2.5 0 1.25 1.25 0 0 1-2.5 0Z" fill="#2D3440"></path></svg><svg viewBox="0 0 12 12" fill="none" id="chevrons"><path fill-rule="evenodd" clip-rule="evenodd" d="M3.35 3.15a.5.5 0 1 0-.7.7L4.79 6 2.65 8.15a.5.5 0 1 0 .7.7l2.5-2.5a.5.5 0 0 0 0-.7l-2.5-2.5Zm3.5 0a.5.5 0 1 0-.7.7L8.29 6 6.15 8.15a.5.5 0 1 0 .7.7l2.5-2.5a.5.5 0 0 0 0-.7l-2.5-2.5Z" fill="#2D3440"></path></svg><svg viewBox="0 0 24 24" fill="none" id="cow"><g clip-path="url(#cow_0)"><path d="M20.06 7.72a9.07 9.07 0 0 0 .35-7.17.75.75 0 0 0-.26-.36.8.8 0 0 0-1.17.22c-1 1.72-3.12 4.48-4.69 4.61h-.07a13 13 0 0 0-2.17-.23c-.74.02-1.47.1-2.19.23h-.05C8.25 4.9 6.08 2.14 5.09.42A.77.77 0 0 0 4.77.1a.8.8 0 0 0-.88.07.77.77 0 0 0-.26.38 9 9 0 0 0 .3 7.16C2.59 7.87.87 8.3.24 9.36a1.61 1.61 0 0 0 0 1.66 1.97 1.97 0 0 0 1.82.94 5.68 5.68 0 0 0 1.89-.36c0 .41.03.82.1 1.22.35 1.34.8 2.65 1.37 3.92l.4 1c-.26.6-.46 1.23-.6 1.87a3.24 3.24 0 0 0 .87 2.5C7.2 23.37 9.2 24 12.02 24c2.83 0 4.83-.63 5.95-1.89a3.3 3.3 0 0 0 .87-2.5c-.14-.64-.34-1.26-.59-1.87l.4-1A24.46 24.46 0 0 0 20 12.82c.08-.4.11-.8.1-1.22.59.22 1.2.35 1.83.37a1.93 1.93 0 0 0 1.83-.95 1.61 1.61 0 0 0 0-1.66c-.62-1.03-2.34-1.48-3.7-1.64Zm-.74-5.02c.28 1.58 0 3.2-.78 4.61a5.61 5.61 0 0 0-2.11-1.6c1.12-.85 2.1-1.86 2.89-3Zm-14.6 0A12.72 12.72 0 0 0 7.6 5.72a5.2 5.2 0 0 0-2.11 1.61 6.96 6.96 0 0 1-.78-4.63Zm-3.08 7.6c-.07-.12-.04-.16 0-.2.18-.29 1.09-.75 2.82-.92a9.6 9.6 0 0 0-.23.66c-1.02.51-2.38.83-2.59.46Zm16.83 2.26a24.98 24.98 0 0 1-1.26 3.63c-.2.47-.39.94-.54 1.42l-.05.23.09.21c.24.58.44 1.17.6 1.77a1.75 1.75 0 0 1-.51 1.3c-.56.63-1.84 1.37-4.77 1.37-2.93 0-4.2-.75-4.77-1.37a1.82 1.82 0 0 1-.5-1.3c.15-.6.36-1.2.6-1.77l.09-.21-.05-.23c-.15-.49-.33-.96-.54-1.42a25.2 25.2 0 0 1-1.28-3.66 5.25 5.25 0 0 1 1.66-4.8c1.18-1.15 3.85-1.4 4.78-1.41.92 0 3.54.26 4.79 1.43a5.34 5.34 0 0 1 1.66 4.78v.03Zm3.9-2.26c-.2.36-1.56.05-2.53-.45a7.53 7.53 0 0 0-.22-.67c1.71.17 2.61.63 2.78.93.04.03.06.07-.01.19h-.02Z" fill="#2D3440"></path></g><defs><clipPath id="cow_0"><rect width="24" height="24" fill="white"></rect></clipPath></defs></svg><svg viewBox="0 0 16 16" fill="none" id="cross"><path fill-rule="evenodd" clip-rule="evenodd" d="M12.8 4.14a.67.67 0 1 0-.94-.94L8 7.06 4.14 3.2a.67.67 0 1 0-.94.94L7.06 8 3.2 11.86a.67.67 0 1 0 .94.94L8 8.94l3.86 3.86a.67.67 0 1 0 .94-.94L8.94 8l3.86-3.86Z" fill="#2D3440"></path></svg><svg viewBox="0 0 16 16" fill="none" id="heart"><path d="M13.9 3a3.67 3.67 0 0 0-5.2 0l-.7.7-.7-.7a3.67 3.67 0 0 0-5.2 5.18l.71.7L8 14.09l5.18-5.2.71-.7a3.67 3.67 0 0 0 0-5.19Z" fill="#2D3440"></path></svg><svg viewBox="0 0 24 24" fill="none" id="ice-cream-cone"><path d="M12.03 1.2a5.11 5.11 0 0 1 4.32 2.42 4.75 4.75 0 0 1 .02 4.85 1.6 1.6 0 0 1 1.33 1.07 1.55 1.55 0 0 1-.4 1.64 1.66 1.66 0 0 1-1.69.38 1.7 1.7 0 0 1-.74-.49 1.5 1.5 0 0 1-.36-.8l-.2.1a2.24 2.24 0 0 1-.78 1.36 2.36 2.36 0 0 1-3 0c-.43-.35-.7-.83-.8-1.36l-.19-.1c-.04.3-.17.57-.36.8a1.65 1.65 0 0 1-1.64.53 1.58 1.58 0 0 1-1.18-2.06c.1-.28.27-.53.5-.72.24-.19.53-.3.83-.35a4.75 4.75 0 0 1 1.84-6.62 5.11 5.11 0 0 1 2.5-.65Zm0-1.2a6.39 6.39 0 0 0-5.04 2.48 5.96 5.96 0 0 0-.9 5.42 2.73 2.73 0 0 0-.53 3.82 2.94 2.94 0 0 0 3.91.69 3.58 3.58 0 0 0 2.56 1.06 3.67 3.67 0 0 0 2.58-1.06 2.95 2.95 0 0 0 3.84-.73 2.73 2.73 0 0 0-.48-3.78 5.89 5.89 0 0 0-.9-5.42A6.2 6.2 0 0 0 12.02 0Z" fill="#2D3440"></path><path d="M16.13 13.53c-.48 0-.97-.1-1.41-.29l-.2.15.09.09-.7.67-.29-.29-.37.13.42.4-.69.67-.7-.67.28-.27a4.54 4.54 0 0 1-1.04 0l.27.27-.69.67-.69-.67.41-.4a3.88 3.88 0 0 1-.37-.12l-.3.28-.7-.67.1-.08-.22-.16c-.44.2-.92.3-1.41.3h-.1a.5.5 0 0 0 .02.27l3.6 9.8.02.04c0 .02 0 .03.02.04a.9.9 0 0 0 .04.07l.01.02.08.08.01.01.07.05.03.02a.6.6 0 0 0 .08.03h.02l.07.02h.26l.06-.02h.04a.71.71 0 0 0 .07-.03l.03-.02a.39.39 0 0 0 .07-.05l.02-.01a.77.77 0 0 0 .07-.08l.02-.02a.56.56 0 0 0 .04-.07l.03-.07 3.61-9.81a.56.56 0 0 0 .03-.28h-.1Zm-2.47 2.69-.7.67-.67-.67.69-.67.68.67Zm-2.32.9.7-.66.68.67-.69.67-.69-.67Zm1.38 1.83-.69.67-.69-.67.7-.67.68.67Zm-.69-4.32.7.67-.7.67-.69-.67.7-.67Zm-.25 1.59-.69.67-.69-.67.7-.67.68.67Zm-2.63-2.43.07-.07.68.67-.39.38-.36-.98Zm.49 1.34.5-.5.7.67-.68.67-.32-.3-.2-.54Zm.5 1.35.02-.01.68.67-.34.34-.36-1Zm.73 2.02-.25-.68.47-.45.69.66-.69.69-.22-.22Zm.61 1.65-.33-.9.63.62-.3.28Zm.54 1.47-.4-1.1.4-.41.41.39-.41 1.12Zm.54-1.48-.27-.27.6-.6-.33.87Zm.61-1.62-.2.2-.68-.68.69-.67.45.44-.26.71Zm.4-1.07-.34-.32.69-.67-.36 1Zm.64-1.76-.3.28-.69-.67.7-.67.49.5-.2.56Zm.33-.92-.38-.38.7-.67.05.06-.37.99Z" fill="#2D3440"></path></svg><svg viewBox="0 0 24 24" fill="none" id="ice-cream"><path d="M12 0a6 6 0 0 0-5.96 5.3H6v11.9h12V5.3h-.04A6 6 0 0 0 12 0Zm4.59 15.8H7.4V9.29a1.26 1.26 0 0 0 1.09.45c.9 0 1.5-.5 1.5-1.15v-.61a.6.6 0 0 1 1.06-.47.6.6 0 0 1 .15.47v2.32a1.32 1.32 0 0 0 1.5 1.3 1.31 1.31 0 0 0 1.5-1.24V8.8a.95.95 0 1 1 1.9 0v.06a.8.8 0 0 0 .46.63v6.35l.02-.04Z" fill="#2D3440"></path><path d="M10.94 22.94a1.06 1.06 0 1 0 2.12 0v-5.02h-2.12v5.02Z" fill="#2D3440"></path></svg><svg viewBox="0 0 16 16" fill="none" id="info"><path fill-rule="evenodd" clip-rule="evenodd" d="M8 2.33a5.67 5.67 0 1 0 0 11.34A5.67 5.67 0 0 0 8 2.33ZM1 8a7 7 0 1 1 14 0A7 7 0 0 1 1 8Zm7-.67c.37 0 .67.3.67.67v2.53a.67.67 0 1 1-1.34 0V8c0-.37.3-.67.67-.67ZM8 4.8a.67.67 0 1 0 0 1.33.67.67 0 0 0 0-1.33Z" fill="#2D3440"></path></svg><svg viewBox="0 0 24 24" fill="none" id="leaf"><path d="M19 13.86C18.68 7.06 12.75.46 12.5.18h-.04l-.08-.1-.1-.05h-.37L11.78 0h-.03l-.12.09-.08.06h-.03C11.25.47 5.32 7.06 5 13.86v.94a9.8 9.8 0 0 0 6.84 9.2h.33A9.8 9.8 0 0 0 19 14.8v-.94ZM6.8 11.35a16.67 16.67 0 0 0 4.53 2.94v3.26c-1.66-.86-4.22-2.4-4.97-3.76.06-.82.2-1.64.41-2.44h.02Zm1.35-3.66a8.33 8.33 0 0 0 3.18 2.2v2.82a13.01 13.01 0 0 1-4.07-2.87c.26-.73.55-1.45.89-2.15Zm8.61 2.15a12.98 12.98 0 0 1-4.06 2.87V9.89a8.34 8.34 0 0 0 3.15-2.2c.34.7.65 1.4.91 2.13v.02ZM12.7 8.37V2.64c.9 1.17 1.73 2.41 2.47 3.7a6.21 6.21 0 0 1-2.49 2l.02.03Zm0 9.2v-3.28c1.65-.71 3.19-1.7 4.55-2.93.2.8.34 1.63.4 2.45-.75 1.34-3.3 2.87-4.97 3.73l.02.03Zm-1.36-9.2a6.15 6.15 0 0 1-2.49-2.02 32.43 32.43 0 0 1 2.48-3.75l.01 5.77ZM6.5 16.06a22.62 22.62 0 0 0 4.83 3.07v3.15a8.01 8.01 0 0 1-3.17-2.46 8.64 8.64 0 0 1-1.66-3.76Zm6.18 6.23v-3.17c1.73-.8 3.35-1.83 4.83-3.06a8.53 8.53 0 0 1-1.65 3.77 7.9 7.9 0 0 1-3.18 2.46Z" fill="#2D3440"></path></svg><svg viewBox="0 0 16 16" fill="none" id="log-in"><path fill-rule="evenodd" clip-rule="evenodd" d="M9 1.67c0-.37.3-.67.67-.67h2.66a2 2 0 0 1 2 2v9.33a2 2 0 0 1-2 2H9.67a.67.67 0 1 1 0-1.33h2.66a.67.67 0 0 0 .67-.67V3a.67.67 0 0 0-.67-.67H9.67A.67.67 0 0 1 9 1.67Zm-3.14 2.2a.67.67 0 0 1 .94 0l3.33 3.32a.69.69 0 0 1 .13.18.66.66 0 0 1-.13.77L6.8 11.47a.67.67 0 1 1-.94-.94l2.2-2.2h-6.4a.67.67 0 1 1 0-1.33h6.4l-2.2-2.2a.67.67 0 0 1 0-.94Z" fill="#2D3440"></path></svg><svg viewBox="0 0 16 16" fill="none" id="search"><path fill-rule="evenodd" clip-rule="evenodd" d="M2.66 7.33a4.67 4.67 0 1 1 9.34 0 4.67 4.67 0 0 1-9.34 0Zm8.42 4.69a6 6 0 1 1 .94-.94l2.45 2.45a.67.67 0 1 1-.94.94l-2.45-2.45Z" fill="#2D3440"></path></svg><svg viewBox="0 0 17 16" fill="none" id="spinner-dark"><g clip-path="url(#spinner-dark_0)"><circle opacity=".24" cx="8.9" cy="8" r="7" stroke="#242424" stroke-width="2" stroke-linecap="round"></circle><path d="M15.9 8a7 7 0 0 0-7-7" stroke="#242424" stroke-width="2" stroke-linecap="round"></path></g><defs><clipPath id="spinner-dark_0"><rect width="16" height="16" fill="white" transform="translate(.9)"></rect></clipPath></defs></svg><svg viewBox="0 0 16 16" fill="none" id="spinner-light"><g clip-path="url(#spinner-light_0)"><circle opacity=".25" cx="8" cy="8" r="7" stroke="#FCFCFC" stroke-width="2" stroke-linecap="round"></circle><path d="M15 8a7 7 0 0 0-7-7" stroke="#FCFCFC" stroke-width="2" stroke-linecap="round"></path></g><defs><clipPath id="spinner-light_0"><rect width="16" height="16" fill="white"></rect></clipPath></defs></svg><svg viewBox="0 0 16 16" fill="none" id="telegram"><path fill-rule="evenodd" clip-rule="evenodd" d="M16 8A8 8 0 1 1 0 8a8 8 0 0 1 16 0ZM8.29 5.9c-.78.33-2.34 1-4.67 2.02-.38.15-.58.3-.6.44-.02.24.28.34.7.47l.17.05c.4.14.96.3 1.24.3.26 0 .55-.1.87-.32a82.12 82.12 0 0 1 3.38-2.23c.05-.01.12-.03.16.01.05.04.04.12.04.14a22.62 22.62 0 0 1-2.2 2.16l-.2.18c-.37.37-.66.64.02 1.1.33.2.6.38.85.56a59.64 59.64 0 0 0 1.2.82c.34.23.64.45 1 .41.22-.02.44-.22.55-.82.27-1.41.79-4.48.9-5.75.02-.1.01-.21 0-.31a.34.34 0 0 0-.12-.22.52.52 0 0 0-.3-.1c-.31.01-.77.17-3 1.1Z" fill="#2D3440"></path></svg><svg viewBox="0 0 24 24" fill="none" id="thermometer"><path d="M14.4 3.8c0-1-.38-1.97-1.03-2.69A3.36 3.36 0 0 0 10.89 0c-.93 0-1.82.4-2.47 1.11a3.97 3.97 0 0 0-1.03 2.7v11.06a5.76 5.76 0 0 0-.8 6.28c.38.79.94 1.46 1.63 1.95a4.6 4.6 0 0 0 4.68.47c.76-.35 1.42-.9 1.94-1.6a5.84 5.84 0 0 0 .85-5.03 5.47 5.47 0 0 0-1.3-2.22V3.8Zm.12 14.8c0 .65-.14 1.3-.43 1.88a3.76 3.76 0 0 1-1.23 1.43 3.37 3.37 0 0 1-3.46.21 3.66 3.66 0 0 1-1.36-1.26 4.08 4.08 0 0 1-.36-3.75c.24-.6.62-1.14 1.1-1.54V3.8c0-.6.23-1.19.62-1.62.4-.43.93-.67 1.5-.67a2 2 0 0 1 1.48.67c.4.43.62 1.01.62 1.62v11.63c.47.35.85.83 1.12 1.38.26.55.4 1.16.4 1.78Z" fill="#2D3440"></path><path d="M11.65 16.23V3.86a.8.8 0 0 0-.2-.54.67.67 0 0 0-.5-.22.67.67 0 0 0-.49.22.79.79 0 0 0-.2.54v12.37c-.47.18-.86.53-1.1.99a2.43 2.43 0 0 0 .45 2.88 2 2 0 0 0 1.34.53 2 2 0 0 0 1.35-.53 2.43 2.43 0 0 0 .46-2.88 2.14 2.14 0 0 0-1.11-1Z" fill="#2D3440"></path><path d="M20 2.96h-4.17v1.5H20v-1.5Z" fill="#2D3440"></path><path d="M20 5.98h-4.17v1.51H20V5.98Z" fill="#2D3440"></path><path d="M20 9h-4.17v1.51H20v-1.5Z" fill="#2D3440"></path><path d="M20 12.03h-4.17v1.5H20v-1.5Z" fill="#2D3440"></path></svg><svg viewBox="0 0 16 16" fill="none" id="vk"><path fill-rule="evenodd" clip-rule="evenodd" d="M16 8A8 8 0 1 1 0 8a8 8 0 0 1 16 0ZM8.4 9.98h-.5s-1.05.06-1.98-.79c-1.01-.92-1.9-2.76-1.9-2.76s-.06-.12 0-.18.23-.07.23-.07H5.4s.11.01.19.06c.06.04.1.12.1.12s.18.4.43.78c.47.72.7.88.86.8.24-.11.16-1.02.16-1.02s0-.33-.11-.48c-.1-.11-.28-.14-.36-.15-.06-.01.04-.14.18-.2.2-.09.57-.1 1-.09.33 0 .43.02.56.05.3.06.3.27.27.71a9.7 9.7 0 0 0-.01.6c-.01.22-.02.48.15.58.09.05.3 0 .84-.8.25-.37.44-.81.44-.81s.04-.08.11-.12c.07-.03.15-.02.15-.02h1.2s.37-.04.43.1c.06.15-.14.5-.63 1.07-.46.54-.69.75-.67.92.01.13.16.25.44.48a3.4 3.4 0 0 1 .8.8c.26.4-.3.42-.3.42l-1.06.02s-.23.04-.54-.15c-.15-.1-.3-.25-.45-.4-.23-.22-.44-.43-.62-.38-.3.08-.28.65-.28.65s0 .12-.07.18c-.07.07-.22.08-.22.08Z" fill="#2D3440"></path></svg><svg viewBox="0 0 16 16" fill="none" id="youtube"><path d="M9.34 7.86 7.46 7c-.16-.08-.3 0-.3.19v1.64c0 .18.14.27.3.2l1.88-.88c.16-.08.16-.2 0-.28ZM8 0a8 8 0 1 0 0 16A8 8 0 0 0 8 0Zm0 11.25c-4.1 0-4.17-.37-4.17-3.25S3.9 4.75 8 4.75s4.17.37 4.17 3.25-.07 3.25-4.17 3.25Z" fill="#2D3440"></path></svg></svg>